PathFileType	4	(X/Y/Z)	/Users/visionmauri/Downloads/Videos/OAW10-top_Sports2D/OAW10-top_Sports2D_px_person00.trc
DataRate	CameraRate	NumFrames	NumMarkers	Units	OrigDataRate	OrigDataStartFrame	OrigNumFrames
25.0	25.0	6	22	m	25.0	1315	1754
Frame#	Time	Hip			RHip			RKnee			RAnkle			RBigToe			RSmallToe			RHeel			LHip			LKnee			LAnkle			LBigToe			LSmallToe			LHeel			Neck			Head			Nose			RShoulder			RElbow			RWrist			LShoulder			LElbow			LWrist			
		X1	Y1	Z1	X2	Y2	Z2	X3	Y3	Z3	X4	Y4	Z4	X5	Y5	Z5	X6	Y6	Z6	X7	Y7	Z7	X8	Y8	Z8	X9	Y9	Z9	X10	Y10	Z10	X11	Y11	Z11	X12	Y12	Z12	X13	Y13	Z13	X14	Y14	Z14	X15	Y15	Z15	X16	Y16	Z16	X17	Y17	Z17	X18	Y18	Z18	X19	Y19	Z19	X20	Y20	Z20	X21	Y21	Z21	X22	Y22	Z22
1315	52.63000570450656	528.7007819827078	500.23752583858845	0.0	513.9145121096107	501.3593034000126	0.0	513.6086984277459	566.6279360137281	0.0	512.8251788006949	607.9622190424702	0.0	516.1481346035065	630.0081101103523	0.0	507.77915480374395	627.6535134442948	0.0	513.6659489972126	612.148679255879	0.0	543.1920285964136	500.28378566374164	0.0	535.7300921541299	566.1817888284342	0.0	535.0538925912795	632.3125293418829	0.0	529.5498811013351	651.0914532489044	0.0	538.6713445113132	650.2332163650777	0.0	534.1694733279854	639.004790323179	0.0	526.3585776953902	409.66948682403483	0.0	525.859132504003	368.1208985896025	0.0	524.5953533642995	399.753927082023	0.0	496.14729622885136	417.9133182253399	0.0	486.88231248719774	466.4505763415419	0.0	481.8992948510863	510.604943330163	0.0	556.7964917668897	416.1980889747648	0.0	569.8955251151676	463.4629445736283	0.0	575.7097347918574	505.1612257001512	0.0
1316	52.670028522532796	528.6432947185594	500.56222364224595	0.0	513.9046784354637	501.53622013719865	0.0	512.5849893284857	567.2326894406596	0.0	512.5574443104994	612.7635041461873	0.0	514.0011891970194	634.955528051479	0.0	505.7490763353748	632.6677392419285	0.0	513.8140230193113	618.4844041139967	0.0	543.4166070559295	500.3086056026934	0.0	536.2140478898897	566.3425622956772	0.0	535.0354016425853	631.6824814353404	0.0	529.2252803082426	651.0583064867285	0.0	538.2760668059914	650.2150146230375	0.0	534.1720824928655	639.1156609900921	0.0	526.0220502052681	409.65624637429755	0.0	524.214497992891	368.40113004104796	0.0	523.1934940648855	399.6433928891186	0.0	495.63846349842214	416.94550858274323	0.0	486.74686782427415	466.6039686616817	0.0	483.53016067300865	510.97924541441625	0.0	556.9242879625648	414.9947226836142	0.0	570.6491235478841	462.5379281257479	0.0	576.587860941778	505.57691884894257	0.0
1317	52.71005134055903	528.4038781728553	501.1981182986072	0.0	513.7276803724268	502.35407396937325	0.0	512.1287804690136	567.9262216984974	0.0	511.88102640618246	620.0853451313316	0.0	511.8359016250172	641.6973208193306	0.0	503.9217605838116	639.4746607304647	0.0	513.01390592534	626.9060693721856	0.0	543.343403266249	501.25575515708493	0.0	536.8270174563495	567.1424633937693	0.0	534.9199021901983	630.9604055040065	0.0	528.3546518294121	651.0115271988744	0.0	537.42127989314	650.1683082090507	0.0	534.328352033579	638.2330054745433	0.0	525.5674996280351	408.7912557284557	0.0	523.7428512140104	370.0123440578858	0.0	522.6427920500531	400.7275566350264	0.0	495.30275810076125	416.1633023005411	0.0	486.6831680773581	466.2304991073219	0.0	484.9332758277174	511.0302200197606	0.0	556.931416319698	413.8094007046875	0.0	571.2544183920661	461.7986849322607	0.0	577.0347314035753	505.3641592974173	0.0
1318	52.75007415858528	527.9910094916521	502.27761831077856	0.0	513.2386410566727	504.0086348191317	0.0	512.0220483373703	568.9206751938041	0.0	510.2717754927428	627.693771541977	0.0	509.17765647482355	648.6202151207589	0.0	501.36745047629677	646.445877670305	0.0	511.18013381450544	634.9135721526197	0.0	543.1669900505653	503.0968917371481	0.0	537.2301983539173	568.6743278892789	0.0	534.7840953152528	630.9453068769501	0.0	527.8990602709241	651.075384426465	0.0	537.0646002410207	650.209734566657	0.0	534.5459093742779	637.6212664601248	0.0	525.1332626816325	408.6364706201747	0.0	523.7835661019262	372.09726549536043	0.0	522.973186199825	403.4842155498205	0.0	494.90291114468647	416.26359408928016	0.0	486.76781758793055	466.2859128084273	0.0	485.8500552459521	511.432801072828	0.0	556.68324429805	413.67417098496173	0.0	571.5187739972821	461.4881730403125	0.0	577.0623759207035	504.8802340964068	0.0
1319	52.790096976611515	527.360150973749	503.82717984790395	0.0	512.3343015894399	505.6999201709433	0.0	511.67065706788645	570.2394124707564	0.0	507.823870882957	634.0706142849053	0.0	505.76344661533926	653.7758114148168	0.0	497.76280627938587	652.008853033531	0.0	508.6606342721619	641.964419001441	0.0	542.825021630914	504.90333877710003	0.0	537.4723565729474	570.7264827453126	0.0	534.7509888040469	631.7440582834887	0.0	528.8630727168379	651.1860089876878	0.0	537.7280973638544	650.2762159869025	0.0	534.5405792371948	637.7865913457665	0.0	524.6763865093934	410.7574119496671	0.0	522.393293220056	371.82305234143627	0.0	522.5248623810055	405.95638120773486	0.0	494.33331035036525	417.2756493539543	0.0	486.8415782425542	467.65892701748254	0.0	486.54671598251235	513.1515868314864	0.0	556.0867044613751	414.7759125639574	0.0	571.4208084519635	461.69407428575215	0.0	576.6797307367437	504.8506752249876	0.0
1320	52.83011979463776	526.4680786399582	505.67222826223843	0.0	511.0674520888401	507.01875858422926	0.0	511.06755362657606	571.7523285573732	0.0	505.4256011336585	638.5309489615603	0.0	503.2068379634584	656.6663606632684	0.0	494.7346831822099	655.8206519109434	0.0	506.0377121201545	647.2446587155256	0.0	542.2529886757327	506.4353896038872	0.0	537.3290904855561	572.8275522516366	0.0	534.8217194494481	632.8034004787212	0.0	530.09402535831	651.308421784704	0.0	538.49463210768	650.3938088457659	0.0	534.4665698108082	638.2817040248816	0.0	524.070191598666	413.99680899942496	0.0	520.0268818297909	371.43601689906944	0.0	520.8761087559715	407.4738112549533	0.0	493.8056645372027	419.11991052931455	0.0	486.85363417582295	469.7763039016178	0.0	486.899234710549	515.8121723620717	0.0	555.1995031802418	416.6109309271289	0.0	571.180549756743	462.7900670477154	0.0	575.8764936958136	505.60468083931335	0.0
